<svg width="24" height="24" viewBox="0 0 24 24" fill="none" xmlns="http://www.w3.org/2000/svg">
<path fill-rule="evenodd" clip-rule="evenodd" d="M15.0002 5.45435C15.0002 5.21255 14.8463 4.99045 14.5999 4.87672C14.3535 4.763 14.0548 4.77617 13.823 4.91099L8.4002 8.3998H4.956C4.54064 8.3998 4.20354 8.68997 4.20022 9.049L4.2002 9.0526L4.2002 9.05435L4.2002 9.0561V14.9506C4.20351 15.3096 4.54064 15.5998 4.956 15.5998H8.4002L13.823 19.0886C14.0548 19.2234 14.3535 19.2366 14.5999 19.1229C14.8463 19.0092 15.0002 18.7871 15.0002 18.5453V5.45435Z" fill="white"/>
<path d="M16.7998 13.7999C16.7998 14.1397 17.0998 14.3999 17.3998 14.3999C18.2998 14.3999 19.1998 13.1999 19.1998 11.9999C19.1998 10.7999 18.2998 9.61472 17.3937 9.61475C17.0998 9.61475 16.7998 9.86008 16.7998 10.1999C16.7998 10.5397 17.1091 10.6367 17.3998 10.7999C17.772 11.0088 17.9998 11.3999 17.9998 11.9999C17.9998 12.5999 17.772 12.9909 17.3998 13.1999C17.1091 13.3631 16.7998 13.4601 16.7998 13.7999Z" fill="white"/>
<path d="M16.7998 17.3975C16.7998 17.8152 17.109 18.056 17.4828 17.9889C19.8103 17.571 21.5998 15.0489 21.5998 12C21.5998 9.3 19.8103 6.42902 17.4828 6.01115C17.109 5.94404 16.7998 6.18484 16.7998 6.60248C16.7998 7.02012 17.1112 7.10064 17.4785 7.2022C18.8569 7.80193 20.3998 9.6011 20.3998 12C20.3998 14.3989 19.1998 16.1981 17.4855 16.7978C17.1182 16.8994 16.7998 16.9799 16.7998 17.3975Z" fill="white"/>
</svg>
